<svg width="31" height="30" viewBox="0 0 31 30" fill="none" xmlns="http://www.w3.org/2000/svg">
<path d="M16.3856 21.9283L15.5335 22.7417C15.1727 23.0861 14.5892 23.0861 14.2323 22.7417L6.7706 15.6229C6.4098 15.2785 6.4098 14.7215 6.7706 14.3808L14.2323 7.2583C14.5931 6.9139 15.1765 6.9139 15.5335 7.2583L16.3856 8.07167C16.7502 8.41974 16.7425 8.98763 16.3702 9.32837L11.7451 13.5345H22.7764C23.2869 13.5345 23.6976 13.9265 23.6976 14.4138V15.5862C23.6976 16.0735 23.2869 16.4655 22.7764 16.4655H11.7451L16.3702 20.6716C16.7464 21.0124 16.754 21.5803 16.3856 21.9283Z" fill="#353535"/>
</svg>
