<?xml version="1.0" encoding="UTF-8" standalone="no"?>
<svg
   width="22.093477"
   height="21.0196"
   viewBox="0 0 22.093477 21.0196"
   fill="none"
   version="1.1"
   id="svg11"
   sodipodi:docname="Like_fill-nw.svg"
   inkscape:version="1.1.2 (0a00cf5339, 2022-02-04)"
   xmlns:inkscape="http://www.inkscape.org/namespaces/inkscape"
   xmlns:sodipodi="http://sodipodi.sourceforge.net/DTD/sodipodi-0.dtd"
   xmlns="http://www.w3.org/2000/svg"
   xmlns:svg="http://www.w3.org/2000/svg">
  <sodipodi:namedview
     id="namedview13"
     pagecolor="#ffffff"
     bordercolor="#666666"
     borderopacity="1.0"
     inkscape:pageshadow="2"
     inkscape:pageopacity="0.0"
     inkscape:pagecheckerboard="0"
     showgrid="false"
     inkscape:zoom="35.325632"
     inkscape:cx="13.7011"
     inkscape:cy="10.601367"
     inkscape:window-width="1920"
     inkscape:window-height="1005"
     inkscape:window-x="0"
     inkscape:window-y="0"
     inkscape:window-maximized="1"
     inkscape:current-layer="g59"
     fit-margin-top="0"
     fit-margin-left="0"
     fit-margin-right="0"
     fit-margin-bottom="0" />
  <defs
     id="defs9">
    <linearGradient
       id="paint0_linear_25368_713"
       x1="11.5"
       y1="-5.4593701"
       x2="3.93419"
       y2="27.993"
       gradientUnits="userSpaceOnUse">
      <stop
         stop-color="#9356DC"
         id="stop4" />
      <stop
         offset="1"
         stop-color="#FF79DA"
         id="stop6" />
    </linearGradient>
  </defs>
  <g
     inkscape:groupmode="layer"
     id="layer1"
     inkscape:label="full"
     style="display:inline"
     transform="translate(-0.42954457,0.00607104)">
    <path
       d="M 20.3647,1.43666 C 18.01,-0.752399 14.5081,-0.358649 12.3468,2.07416 L 11.5003,3.02573 10.6538,2.07416 C 8.49677,-0.358649 4.99052,-0.752399 2.63583,1.43666 -0.0626075,3.94916 -0.204405,8.45854 2.21044,11.182 l 8.31446,9.3656 c 0.5371,0.6047 1.4094,0.6047 1.9465,0 L 20.7858,11.182 C 23.205,8.45854 23.0632,3.94916 20.3647,1.43666 Z"
       fill="url(#paint0_linear_25368_713)"
       id="path2"
       style="fill:url(#paint0_linear_25368_713)" />
  </g>
  <g
     inkscape:groupmode="layer"
     id="layer2"
     inkscape:label="empty"
     style="display:none"
     transform="translate(-0.42954457,0.00607104)">
    <g
       style="fill:none"
       id="g59"
       transform="translate(0.01411417,0.03775502)">
      <path
         d="m 12.7206,2.40551 -3e-4,2.5e-4 C 12.449369,2.6032604 12.051238,3.0945881 11.836193,3.3319728 L 11.507215,3.7595501 C 11.361548,3.5978805 11.221453,3.4443749 11.1267,3.35732 10.822789,2.9347304 10.619125,2.7438367 10.322673,2.4160429 L 10.502392,2.646362 C 8.6693269,0.13047666 5.0020343,-0.27204001 2.8991395,1.7378897 0.30786507,3.9594404 0.34479156,8.3235537 2.58455,10.8495 l 8.31415,9.3653 c 0,10e-5 10e-5,10e-5 10e-5,10e-5 0.3382,0.3806 0.8605,0.3806 1.1987,0 l 10e-5,-10e-5 8.3143,-9.3655 10e-5,-10e-5 C 22.6556,8.32335 22.5183,4.12461 20.0243,1.80213 18.201894,-0.09147244 14.701812,-0.05171381 12.7206,2.40551 Z M 12.567236,2.5302531 C 14.413377,0.3266931 17.737082,-0.24254092 20.024,1.80187 16.933134,-0.50376956 14.571112,0.6917714 12.567236,2.5302531 Z"
         stroke="#101010"
         id="path2-3"
         sodipodi:nodetypes="cccccccccccccccccccc" />
    </g>
  </g>
</svg>
