<?xml version="1.0" encoding="UTF-8" standalone="no"?>
<svg
   width="23"
   height="21"
   viewBox="0 0 23 21"
   fill="none"
   version="1.1"
   id="svg4"
   sodipodi:docname="Vector.svg"
   inkscape:version="1.1.2 (0a00cf5339, 2022-02-04)"
   xmlns:inkscape="http://www.inkscape.org/namespaces/inkscape"
   xmlns:sodipodi="http://sodipodi.sourceforge.net/DTD/sodipodi-0.dtd"
   xmlns="http://www.w3.org/2000/svg"
   xmlns:svg="http://www.w3.org/2000/svg">
  <defs
     id="defs8" />
  <sodipodi:namedview
     id="namedview6"
     pagecolor="#ffffff"
     bordercolor="#666666"
     borderopacity="1.0"
     inkscape:pageshadow="2"
     inkscape:pageopacity="0.0"
     inkscape:pagecheckerboard="0"
     showgrid="false"
     inkscape:zoom="39.190476"
     inkscape:cx="11.507898"
     inkscape:cy="7.9483597"
     inkscape:window-width="1920"
     inkscape:window-height="1005"
     inkscape:window-x="0"
     inkscape:window-y="0"
     inkscape:window-maximized="1"
     inkscape:current-layer="svg4" />
  <path
     d="m 12.7206,2.40551 -3e-4,2.5e-4 -0.8464,0.95156 -0.3736,0.41995 -0.3736,-0.41995 -0.8465,-0.95156 -5e-4,-6.2e-4 C 8.28247,0.152585 5.09737,-0.169649 2.9764,1.80201 0.482212,4.1245 0.344816,8.32357 2.58455,10.8495 l 8.31415,9.3653 c 0,10e-5 10e-5,10e-5 10e-5,10e-5 0.3382,0.3806 0.8605,0.3806 1.1987,0 l 10e-5,-10e-5 8.3143,-9.3655 10e-5,-10e-5 C 22.6556,8.32335 22.5183,4.12461 20.0243,1.80213 18.110687,-0.04469275 14.546039,0.12002157 12.7206,2.40551 Z m 0,0 C 14.645331,0.11844472 17.74657,-0.23840804 20.024,1.80187 16.933134,-0.50376956 14.640318,0.5323978 12.7206,2.40551 Z"
     stroke="#101010"
     id="path2"
     sodipodi:nodetypes="cccccccccccccccccccc" />
</svg>
