<?xml version="1.0" encoding="UTF-8" standalone="no"?>
<!-- Created with Inkscape (http://www.inkscape.org/) -->

<svg
   width="79.104141mm"
   height="79.104149mm"
   viewBox="0 0 79.104142 79.104148"
   version="1.1"
   id="svg833"
   inkscape:version="1.1.2 (0a00cf5339, 2022-02-04)"
   sodipodi:docname="spin_int.svg"
   xmlns:inkscape="http://www.inkscape.org/namespaces/inkscape"
   xmlns:sodipodi="http://sodipodi.sourceforge.net/DTD/sodipodi-0.dtd"
   xmlns="http://www.w3.org/2000/svg"
   xmlns:svg="http://www.w3.org/2000/svg">
  <sodipodi:namedview
     id="namedview835"
     pagecolor="#ffffff"
     bordercolor="#666666"
     borderopacity="1.0"
     inkscape:pageshadow="2"
     inkscape:pageopacity="0.0"
     inkscape:pagecheckerboard="0"
     inkscape:document-units="mm"
     showgrid="false"
     inkscape:snap-center="true"
     fit-margin-top="0"
     fit-margin-left="0"
     fit-margin-right="0"
     fit-margin-bottom="0"
     inkscape:zoom="1.2996003"
     inkscape:cx="53.477983"
     inkscape:cy="287.7808"
     inkscape:window-width="2560"
     inkscape:window-height="1412"
     inkscape:window-x="1920"
     inkscape:window-y="0"
     inkscape:window-maximized="1"
     inkscape:current-layer="layer2"
     inkscape:snap-intersection-paths="true" />
  <defs
     id="defs830">
    <linearGradient
       id="linearGradient55880"
       inkscape:swatch="solid">
      <stop
         style="stop-color:#000000;stop-opacity:1;"
         offset="0"
         id="stop55878" />
    </linearGradient>
  </defs>
  <g
     inkscape:label="int"
     inkscape:groupmode="layer"
     id="layer1"
     style="display:none"
     transform="translate(-28.909783,-89.023857)">
    <g
       aria-label="ohmyfood"
       id="text6222"
       style="font-size:10.5833px;line-height:1.25;font-family:Shrikhand;-inkscape-font-specification:'Shrikhand, Normal';fill:#99e2d0;fill-opacity:1;stroke-width:0.264583"
       inkscape:transform-center-x="21.152269"
       inkscape:transform-center-y="21.354854"
       transform="rotate(-4.5750618,131.50174,176.96207)">
      <path
         d="m 96.615767,180.23907 q 0.117373,1.43454 -0.407535,2.15708 -0.524045,0.73309 -1.462822,0.8099 -0.316441,0.0259 -0.713623,-0.0266 -0.881338,-0.12964 -1.580196,-0.62463 -0.688309,-0.49586 -1.112534,-1.26816 -0.412814,-0.76263 -0.488761,-1.69086 -0.119963,-1.46618 0.402356,-2.22036 0.533731,-0.7445 1.504151,-0.8239 0.32699,-0.0268 0.73472,0.0248 0.839146,0.1331 1.51777,0.64036 0.690036,0.51695 1.104575,1.30067 0.425951,0.7934 0.501899,1.72163 z m -0.941366,0.0452 q -0.01812,-0.22151 -0.439663,-0.44187 -0.410127,-0.21067 -1.534742,-0.45845 -1.124615,-0.24778 -1.567633,-0.21154 -0.232057,0.019 -0.3104,0.0997 -0.06779,0.0799 -0.05744,0.20646 -0.003,0.22323 0.416841,0.42249 0.420676,0.20981 1.610305,0.47351 1.049915,0.24328 1.514029,0.2053 0.221509,-0.0181 0.299852,-0.0989 0.07921,-0.0702 0.06885,-0.19677 z"
         id="path11519"
         style="fill:#99e2d0;fill-opacity:1" />
      <path
         d="m 94.277669,189.25028 q -0.04632,-0.01 -0.128212,0.0118 -0.07166,0.0188 -0.104541,0.0603 -0.0302,0.0517 -0.01408,0.11311 0.03224,0.12284 0.156104,0.17786 0.136784,0.0626 0.144844,0.0933 0.01344,0.0512 -0.05016,0.1007 -0.05336,0.0468 -0.145488,0.071 -0.294173,0.0882 -0.634534,-0.0413 -0.330124,-0.13219 -0.619171,-0.48305 -0.276123,-0.34331 -0.421215,-0.89609 -0.177334,-0.67561 0.02497,-1.15544 0.212545,-0.48252 0.731922,-0.62979 0.378752,-0.0994 0.897997,-0.0388 l 1.621841,0.1761 q 0.14651,0.0162 0.228402,-0.005 0.133075,-0.0349 0.180549,-0.14587 0.0604,-0.10339 0.02815,-0.22623 -0.05105,-0.19449 -0.289047,-0.35086 -0.225072,-0.14881 -0.65654,-0.16686 l 0.02047,-0.005 -2.247292,-0.0995 q -0.130899,0.002 -0.223028,0.0257 -0.133076,0.0349 -0.201533,0.10761 -0.05822,0.07 -0.105696,0.18093 -0.05285,0.0905 -0.09597,0.13461 -0.03289,0.0414 -0.109915,0.0398 -0.14651,-0.0163 -0.248233,-0.15368 -0.101722,-0.13743 -0.185016,-0.45476 l -0.61261,-2.33393 q -0.06986,-0.26615 -0.02021,-0.41049 0.05989,-0.14702 0.213945,-0.14369 0.133586,0.009 0.271392,0.15854 0.122196,0.13206 0.261667,0.20487 0.139471,0.0728 0.403956,0.08 l 5.516443,0.2152 q 0.10019,0.007 0.161609,-0.01 0.112602,-0.0296 0.168137,-0.10978 0.05822,-0.07 0.105695,-0.18093 0.05502,-0.12386 0.103008,-0.19116 0.05067,-0.0571 0.161098,-0.0532 0.251562,-3.8e-4 0.578736,0.53743 0.327173,0.5378 0.49376,1.17247 0.15584,0.59372 0.0032,0.92922 -0.149971,0.34573 -0.53896,0.44783 -0.225204,0.0591 -0.45898,0.0439 l -1.946724,-0.0799 q 0.626853,0.2622 0.94712,0.64863 0.322954,0.39667 0.459985,0.91873 0.1639,0.62443 -0.115437,1.1026 -0.276651,0.4884 -0.880607,0.64693 -0.317333,0.0833 -0.651298,0.0615 z"
         id="path11521"
         style="fill:#99e2d0;fill-opacity:1" />
      <path
         d="m 98.941158,198.94584 q -0.04732,0.001 -0.122224,0.0405 -0.06554,0.0345 -0.08819,0.0824 -0.01772,0.0572 0.01188,0.11336 0.0592,0.11236 0.192302,0.13792 0.147395,0.03 0.162196,0.0581 0.02467,0.0468 -0.02607,0.10944 -0.04138,0.0577 -0.125644,0.10209 -0.266593,0.15244 -0.627429,0.10332 -0.351473,-0.0541 -0.712418,-0.3304 -0.346649,-0.27192 -0.613064,-0.77753 -0.325619,-0.61795 -0.237141,-1.13112 0.09784,-0.5181 0.570421,-0.77908 0.346431,-0.18254 0.865933,-0.24095 l 1.61962,-0.19548 q 0.146387,-0.0173 0.22129,-0.0568 0.12172,-0.0641 0.14286,-0.18294 0.0354,-0.11437 -0.0238,-0.22673 -0.0839,-0.15917 -0.313122,-0.2537 -0.22925,-0.0945 -0.597936,-0.0677 l -1.947325,0.36815 q -0.04732,0.001 -0.122223,0.0405 -0.06554,0.0345 -0.08819,0.0824 -0.01772,0.0572 0.01188,0.11336 0.0592,0.11236 0.192303,0.13792 0.147395,0.03 0.162196,0.0581 0.02467,0.0468 -0.02607,0.10944 -0.04138,0.0577 -0.125644,0.10209 -0.266593,0.15244 -0.627429,0.10332 -0.351473,-0.0541 -0.712419,-0.3304 -0.346648,-0.27192 -0.613064,-0.77753 -0.325618,-0.61795 -0.23714,-1.13112 0.09784,-0.5181 0.570421,-0.77907 0.34643,-0.18255 0.865933,-0.24096 l 1.61962,-0.19548 q 0.146387,-0.0173 0.221291,-0.0568 0.121719,-0.0641 0.142857,-0.18294 0.03544,-0.11437 -0.02377,-0.22673 -0.08387,-0.15917 -0.313122,-0.2537 -0.219887,-0.0995 -0.578706,-0.0539 l -2.329299,0.43784 q -0.122728,0.0168 -0.216358,0.0661 -0.112356,0.0592 -0.162591,0.14549 -0.04087,0.0813 -0.07138,0.20508 -0.02164,0.0951 -0.05366,0.1479 -0.03201,0.0528 -0.107423,0.0686 -0.141453,0.0267 -0.271635,-0.0842 -0.130182,-0.11084 -0.288058,-0.41046 l -1.124866,-2.13476 q -0.128274,-0.24344 -0.10764,-0.3859 0.02506,-0.15676 0.170946,-0.19774 0.132091,-0.0217 0.300229,0.093 0.148909,0.10097 0.301238,0.14033 0.152329,0.0394 0.411576,-0.0135 l 3.144997,-0.59251 q 0.05668,-0.006 0.140949,-0.0504 0.102993,-0.0543 0.134503,-0.13068 0.03644,-0.0671 0.07137,-0.20509 0.02557,-0.1331 0.06201,-0.20015 0.03644,-0.0671 0.144874,-0.0883 0.244951,-0.0573 0.685338,0.39252 0.44975,0.44489 0.755635,1.02539 0.241747,0.45879 0.127088,0.85416 -0.109726,0.40473 -0.55472,0.62725 0.735969,0.10267 1.163968,0.41546 0.432928,0.32216 0.694408,0.8184 0.28615,0.54305 0.14542,1.04786 -0.12643,0.50924 -0.6123,0.81311 0.84883,0.0671 1.33401,0.39764 0.49455,0.32558 0.7807,0.86863 0.30095,0.57114 0.13707,1.10012 -0.15896,0.53833 -0.71137,0.82942 -0.29026,0.15294 -0.62048,0.20732 z"
         id="path11523"
         style="fill:#99e2d0;fill-opacity:1" />
      <path
         d="m 106.19124,201.01922 q 0.29998,0.35617 0.18583,0.81207 -0.0992,0.45718 -0.59301,0.87307 -0.42901,0.36134 -1.05233,0.62343 -1.2479,0.53908 -2.68928,0.61846 -1.43456,0.0875 -2.691498,-0.32059 -1.250118,-0.39996 -1.965987,-1.2499 -0.354526,-0.42093 -0.467898,-0.85125 -0.106555,-0.42222 0.0067,-0.78055 0.106484,-0.36643 0.381703,-0.59823 0.12142,-0.10227 0.301214,-0.18452 0.288011,-0.11805 0.552605,-0.0503 0.264594,0.0677 0.46231,0.30246 0.313619,0.37236 0.2604,0.81845 -0.0545,0.46101 -0.44516,0.90075 0.460624,0.49761 1.249708,0.58019 -0.274856,-0.47418 -0.242934,-0.847 0.04683,-0.37153 0.422587,-0.81255 l 1.71048,-1.99414 q 0.13335,-0.15383 0.1491,-0.25012 0.0307,-0.095 -0.0307,-0.16787 -0.0477,-0.0567 -0.17257,-0.0899 -0.11802,-0.0251 -0.14529,-0.0575 -0.0545,-0.0648 0.0831,-0.18066 0.11332,-0.0954 0.27693,-0.16406 0.58411,-0.24291 1.23388,-0.11216 0.65786,0.12392 1.10101,0.65008 0.43634,0.51806 0.33328,1.01997 -0.0962,0.51001 -0.67436,1.12147 l -1.5763,1.74276 q -0.18191,0.19473 -0.0797,0.31615 0.12273,0.1457 0.54538,0.12181 0.43075,-0.0307 1.07324,-0.25361 0.014,-0.42692 0.18825,-0.79506 0.17423,-0.36814 0.49802,-0.64085 0.25094,-0.21135 0.50784,-0.31704 0.40561,-0.17558 0.73794,-0.10956 0.34726,0.0673 0.56543,0.32631 z"
         id="path11525"
         style="fill:#99e2d0;fill-opacity:1" />
      <path
         d="m 111.03437,202.42137 q 0.83848,0.76113 1.01906,1.39673 0.19553,0.63488 -0.13879,1.00318 -0.27031,0.29778 -0.67045,0.23472 -0.38519,-0.0638 -0.78484,-0.42657 -0.3683,-0.33432 -0.40844,-0.6995 -0.0401,-0.36518 0.20172,-0.63162 0.14938,-0.16456 0.41485,-0.25232 -0.23508,-0.2134 -0.49851,-0.23812 -0.25631,-0.0326 -0.59148,0.16346 -0.20351,0.12972 -0.33866,0.27861 -0.17072,0.18807 -0.20761,0.35469 -0.022,0.16589 0.10343,0.2797 l 0.46234,0.41969 q 0.40749,0.36989 0.17986,0.62065 -0.0284,0.0313 -0.10103,0.0798 -0.20351,0.12971 -0.43065,0.0808 -0.2193,-0.0418 -0.50924,-0.30503 l -0.23509,-0.2134 -3.0805,1.83473 q -0.10887,0.0727 -0.17289,0.14323 -0.0925,0.10187 -0.1102,0.20012 -0.0106,0.0904 0.0101,0.2093 0.005,0.10464 -0.007,0.16517 -0.005,0.0527 -0.0704,0.0933 -0.13166,0.0663 -0.29188,0.007 -0.16022,-0.0597 -0.40315,-0.28019 l -1.78667,-1.62184 q -0.20374,-0.18494 -0.24087,-0.33299 -0.03,-0.15589 0.10092,-0.23714 0.1167,-0.0656 0.31394,-0.0152 0.17445,0.044 0.33106,0.0289 0.15661,-0.0151 0.38218,-0.15335 l 2.43223,-1.45124 q 0.14589,-0.082 0.2597,-0.20736 0.14226,-0.15673 0.14998,-0.30694 0.0227,-0.15095 -0.011,-0.38158 -0.0222,-0.14877 -0.0265,-0.23847 0.0106,-0.0904 0.0746,-0.16095 0.12731,-0.156 0.29393,-0.1191 0.17445,0.044 0.49574,0.33565 l 0.1959,0.17783 q 0.12298,-0.2457 0.30081,-0.4416 0.17784,-0.19591 0.44042,-0.34347 0.51167,-0.2645 1.24648,-0.0977 0.74266,0.17387 1.70652,1.0488 z"
         id="path11527"
         style="fill:#99e2d0;fill-opacity:1" />
      <path
         d="m 112.3307,206.02608 q 1.18919,0.81086 1.42088,1.67336 0.24044,0.86847 -0.2902,1.64669 -0.17886,0.26232 -0.46942,0.53815 -0.65504,0.60373 -1.47939,0.83582 -0.81838,0.22335 -1.68564,0.0675 -0.85256,-0.15861 -1.62203,-0.68329 -1.21542,-0.82875 -1.47335,-1.70914 -0.24322,-0.88317 0.3053,-1.68763 0.18483,-0.27106 0.48135,-0.55564 0.63119,-0.56875 1.45236,-0.77739 0.83587,-0.21143 1.70591,-0.0409 0.88475,0.16776 1.65423,0.69244 z m -0.55687,0.76033 q -0.18363,-0.12521 -0.62005,0.064 -0.42171,0.1864 -1.32159,0.90499 -0.89988,0.71858 -1.1503,1.08583 -0.13117,0.19237 -0.11766,0.30406 0.0195,0.10294 0.1244,0.17449 0.1717,0.14269 0.59064,-0.0584 0.42767,-0.19514 1.38082,-0.95427 0.8494,-0.66334 1.11174,-1.04808 0.1252,-0.18362 0.11169,-0.29531 -0.005,-0.10573 -0.10969,-0.17727 z"
         id="path11529"
         style="fill:#99e2d0;fill-opacity:1" />
      <path
         d="m 117.59239,208.87006 q 1.30959,0.59718 1.68437,1.40782 0.38441,0.81503 -0.006,1.67204 -0.13173,0.28889 -0.37123,0.61005 -0.54303,0.70618 -1.316,1.07487 -0.76858,0.35906 -1.6497,0.35274 -0.86711,-0.0115 -1.7145,-0.39796 -1.33849,-0.61035 -1.74215,-1.43416 -0.38965,-0.82905 0.0143,-1.71496 0.13612,-0.29851 0.38001,-0.6293 0.52546,-0.66766 1.29928,-1.01271 0.78783,-0.35027 1.6742,-0.32994 0.90039,0.0151 1.74778,0.40151 z m -0.41969,0.84384 q -0.20222,-0.0922 -0.60018,0.16832 -0.38395,0.2553 -1.14875,1.11625 -0.76481,0.86094 -0.94923,1.26538 -0.0966,0.21184 -0.0643,0.31961 0.0367,0.0982 0.15222,0.15084 0.19344,0.11147 0.57214,-0.15785 0.38833,-0.26492 1.19874,-1.17486 0.72444,-0.79793 0.91765,-1.22162 0.0922,-0.20222 0.0599,-0.30999 -0.0226,-0.10339 -0.1382,-0.15608 z"
         id="path11531"
         style="fill:#99e2d0;fill-opacity:1" />
      <path
         d="m 123.985,215.17716 q -0.0419,0.0765 -0.05,0.10724 -0.0188,0.0717 0.0114,0.12335 0.0302,0.0517 0.0916,0.0678 0.12285,0.0322 0.23159,-0.0487 0.12166,-0.0884 0.15238,-0.0804 0.0512,0.0134 0.0631,0.0931 0.0119,0.0797 -0.0122,0.17185 -0.0622,0.27909 -0.36262,0.50668 -0.29014,0.23026 -0.707,0.3179 -0.41686,0.0876 -0.84682,-0.0251 -0.51186,-0.13422 -0.83964,-0.42805 -0.32777,-0.29383 -0.38787,-0.64877 -0.37036,0.28583 -0.7743,0.3659 -0.40393,0.0801 -0.80319,-0.0246 -0.47091,-0.12348 -0.81865,-0.46631 -0.33751,-0.34015 -0.47046,-0.83454 -0.12002,-0.50194 0.0249,-1.05475 0.24429,-0.93158 0.8071,-1.65929 0.57574,-0.73526 1.34199,-1.07045 0.76892,-0.34542 1.57766,-0.13335 0.4402,0.11543 0.72047,0.29833 0.29051,0.18559 0.49275,0.45744 l 0.64872,-1.05529 q 0.0549,-0.0841 0.071,-0.14551 0.0295,-0.11261 -0.0131,-0.20037 -0.0324,-0.0851 -0.10574,-0.18091 -0.0809,-0.10874 -0.11598,-0.18358 -0.0248,-0.0722 0.0327,-0.16648 0.12317,-0.21935 0.75232,-0.24037 0.62916,-0.021 1.26387,0.14541 0.59375,0.1557 0.8111,0.4534 0.22758,0.30038 0.12558,0.68939 -0.0591,0.22522 -0.18709,0.42141 z m -0.95529,-3.32495 q -0.12621,-0.18627 -0.32072,-0.23728 -0.29688,-0.0778 -0.69895,0.28719 -0.40207,0.36504 -0.73985,0.94387 -0.33778,0.57884 -0.45908,1.08314 -0.14765,0.56305 0.22089,0.65969 0.13309,0.0349 0.25207,-0.0433 0.12166,-0.0884 0.26798,-0.31266 z"
         id="path11533"
         style="fill:#99e2d0;fill-opacity:1" />
    </g>
    <circle
       style="display:inline;fill:none;stroke:#000000;stroke-width:0.264583"
       id="path916"
       cx="-131.59338"
       cy="176.60585"
       r="40.753773"
       transform="scale(-1,1)" />
  </g>
  <g
     inkscape:groupmode="layer"
     id="layer2"
     inkscape:label="ext"
     style="display:inline"
     transform="translate(-28.909783,-89.023857)">
    <g
       aria-label="ohmyfood"
       transform="rotate(-44.927916,68.461853,128.57591)"
       id="text31480"
       style="font-size:7.05556px;line-height:1.25;font-family:Shrikhand;-inkscape-font-specification:'Shrikhand, Normal';stroke-width:0.264583"
       inkscape:transform-center-x="1.3543435"
       inkscape:transform-center-y="19.671443">
      <path
         d="m 47.630397,129.46979 q 0.01823,0.95938 -0.36118,1.41823 -0.379274,0.4659 -1.007105,0.47783 -0.211629,0.004 -0.47371,-0.0474 -0.580998,-0.12305 -1.025333,-0.48156 -0.437281,-0.35865 -0.687313,-0.89021 -0.242844,-0.52465 -0.254639,-1.14543 -0.01863,-0.98055 0.360376,-1.46056 0.386194,-0.47308 1.035188,-0.48541 0.218683,-0.004 0.487818,0.0472 0.552781,0.12358 0.983142,0.48941 0.437549,0.37276 0.680661,0.91152 0.2503,0.54567 0.262095,1.16645 z m -0.628234,-0.009 q -0.0028,-0.14814 -0.274094,-0.31235 -0.264091,-0.15729 -1.002026,-0.36909 -0.737935,-0.2118 -1.034215,-0.20617 -0.155194,0.003 -0.21069,0.0534 -0.04844,0.0503 -0.04683,0.13497 -0.01129,0.14841 0.259718,0.29851 0.271145,0.15716 1.051674,0.38226 0.688421,0.20568 0.998809,0.19978 0.14814,-0.003 0.203636,-0.0533 0.05563,-0.0434 0.05402,-0.12805 z"
         style="fill:#99e2d0"
         id="path194849" />
      <path
         d="m 45.792418,135.32825 q -0.03061,-0.008 -0.08572,0.005 -0.04822,0.0107 -0.0712,0.0374 -0.02145,0.0337 -0.0123,0.075 0.0183,0.0827 0.09939,0.12253 0.0895,0.0452 0.09408,0.0659 0.0076,0.0344 -0.03602,0.0658 -0.03676,0.0298 -0.09876,0.0435 -0.198249,0.0511 -0.421636,-0.044 -0.216497,-0.0966 -0.399971,-0.33781 -0.17506,-0.23585 -0.257412,-0.60785 -0.100652,-0.45466 0.04653,-0.76907 0.154076,-0.31594 0.503879,-0.4006 0.254884,-0.0564 0.599219,-0.003 l 1.07586,0.15928 q 0.09718,0.0146 0.152289,0.002 0.08955,-0.0198 0.12405,-0.0925 0.04291,-0.0673 0.02461,-0.14998 -0.02898,-0.13089 -0.183474,-0.24121 -0.146085,-0.10496 -0.433047,-0.12815 l 0.01378,-0.003 -1.494498,-0.12441 q -0.08724,-0.002 -0.149239,0.0114 -0.08955,0.0198 -0.137039,0.0665 -0.0406,0.0451 -0.07509,0.1178 -0.03755,0.0589 -0.06741,0.0872 -0.02298,0.0268 -0.07425,0.0237 -0.09718,-0.0146 -0.161388,-0.1088 -0.06421,-0.0942 -0.111483,-0.30773 l -0.347707,-1.57064 q -0.03965,-0.17911 -0.0028,-0.27398 0.0437,-0.0964 0.146242,-0.0902 0.08877,0.009 0.17669,0.11264 0.07798,0.0911 0.169012,0.14324 0.09103,0.0521 0.267033,0.0637 l 3.669303,0.28611 q 0.06657,0.007 0.107906,-0.002 0.07578,-0.0168 0.114848,-0.0688 0.0406,-0.0451 0.07509,-0.1178 0.03986,-0.0811 0.07357,-0.12468 0.03523,-0.0367 0.108695,-0.0313 0.167592,0.006 0.371628,0.37299 0.204036,0.36674 0.298588,0.79384 0.08845,0.39955 -0.02193,0.6191 -0.108852,0.22643 -0.370626,0.28438 -0.151553,0.0336 -0.306892,0.0174 l -1.294776,-0.10359 q 0.410803,0.19089 0.614155,0.4566 0.204877,0.27261 0.282653,0.62394 0.09303,0.42021 -0.105432,0.73152 -0.196933,0.3182 -0.603371,0.40818 -0.213552,0.0473 -0.435465,0.0241 z"
         style="fill:#99e2d0"
         id="path194851" />
      <path
         d="m 48.801179,141.80833 q -0.03155,3.7e-4 -0.08174,0.0262 -0.04391,0.0226 -0.05931,0.0543 -0.01217,0.038 0.0072,0.0756 0.03875,0.0753 0.127322,0.0932 0.09807,0.0209 0.107758,0.0397 0.01615,0.0314 -0.01807,0.0728 -0.02795,0.0382 -0.08441,0.0673 -0.178689,0.0999 -0.418925,0.0649 -0.233963,-0.0383 -0.47283,-0.22478 -0.229365,-0.18347 -0.403761,-0.52222 -0.213152,-0.41402 -0.150914,-0.75555 0.06851,-0.34477 0.385206,-0.51575 0.232101,-0.11949 0.578793,-0.15514 l 1.080941,-0.12004 q 0.0977,-0.0106 0.147882,-0.0365 0.08155,-0.042 0.09639,-0.12105 0.02435,-0.076 -0.01441,-0.1513 -0.0549,-0.10664 -0.20713,-0.17111 -0.152228,-0.0645 -0.398178,-0.0489 l -1.300498,0.23308 q -0.03155,3.7e-4 -0.08174,0.0262 -0.04391,0.0226 -0.05931,0.0543 -0.01217,0.038 0.0072,0.0756 0.03875,0.0753 0.127321,0.0932 0.09807,0.0209 0.107758,0.0397 0.01615,0.0314 -0.01807,0.0728 -0.02795,0.0382 -0.08441,0.0673 -0.178688,0.0999 -0.418924,0.0649 -0.233963,-0.0383 -0.472831,-0.22478 -0.229365,-0.18347 -0.403761,-0.52222 -0.213151,-0.41402 -0.150914,-0.75555 0.06851,-0.34477 0.385206,-0.51575 0.232102,-0.11949 0.578793,-0.15514 l 1.080942,-0.12004 q 0.0977,-0.0106 0.147881,-0.0364 0.08155,-0.042 0.0964,-0.12105 0.02435,-0.076 -0.01441,-0.1513 -0.0549,-0.10664 -0.20713,-0.17111 -0.145954,-0.0677 -0.385446,-0.0396 l -1.555578,0.2771 q -0.08192,0.0104 -0.144652,0.0427 -0.07528,0.0388 -0.109313,0.096 -0.02776,0.054 -0.04888,0.13627 -0.01503,0.0633 -0.03671,0.0983 -0.02168,0.035 -0.07205,0.045 -0.09447,0.0169 -0.180549,-0.0578 -0.08608,-0.0747 -0.189428,-0.27545 L 44.88355,136.326 q -0.08397,-0.1631 -0.06931,-0.25794 0.0177,-0.10434 0.115214,-0.13074 0.08819,-0.0137 0.199554,0.0639 0.09863,0.0683 0.199926,0.0955 0.101299,0.0272 0.274459,-0.006 l 2.100335,-0.37505 q 0.03782,-0.004 0.09428,-0.0327 0.069,-0.0355 0.09049,-0.0863 0.02472,-0.0445 0.04888,-0.13627 0.01789,-0.0886 0.04261,-0.13304 0.02472,-0.0445 0.09714,-0.0579 0.163657,-0.0366 0.454384,0.26602 0.296999,0.29943 0.497232,0.68835 0.158249,0.30738 0.0793,0.57022 -0.07571,0.26912 -0.373776,0.41464 0.489975,0.0731 0.773312,0.28434 0.286566,0.21751 0.457733,0.54998 0.187315,0.36384 0.0903,0.69947 -0.08752,0.33868 -0.413341,0.53817 0.565437,0.0501 0.886785,0.27354 0.32762,0.22018 0.514935,0.58401 0.197003,0.38266 0.0844,0.73425 -0.109378,0.35787 -0.479487,0.54841 -0.194464,0.10012 -0.41495,0.13428 z"
         style="fill:#99e2d0"
         id="path194853" />
      <path
         d="m 53.651612,143.09286 q 0.203801,0.23418 0.132627,0.5393 -0.06122,0.30582 -0.385881,0.58836 -0.282082,0.24549 -0.694747,0.42691 -0.826021,0.3728 -1.785964,0.44124 -0.95531,0.0738 -1.797559,-0.1847 -0.837616,-0.25313 -1.323961,-0.81198 -0.240856,-0.27676 -0.321065,-0.56238 -0.07558,-0.28029 -0.0039,-0.52037 0.06703,-0.24541 0.24799,-0.40289 0.07983,-0.0695 0.198795,-0.12624 0.190711,-0.0818 0.367815,-0.0395 0.177103,0.0423 0.311427,0.19664 0.213065,0.24482 0.182398,0.54276 -0.03136,0.30789 -0.28703,0.60522 0.312406,0.32673 0.839286,0.37328 -0.188324,-0.31313 -0.171063,-0.56198 0.02721,-0.24817 0.272932,-0.54619 l 1.118689,-1.34769 q 0.08723,-0.10397 0.09669,-0.16833 0.01942,-0.0637 -0.02227,-0.11157 -0.03242,-0.0373 -0.115997,-0.0581 -0.07894,-0.0155 -0.09747,-0.0368 -0.03706,-0.0426 0.05342,-0.12132 0.07451,-0.0649 0.182828,-0.11235 0.386744,-0.16821 0.821275,-0.0881 0.439853,0.0755 0.740923,0.42147 0.296439,0.34062 0.233147,0.6763 -0.05866,0.34101 -0.437434,0.75482 l -1.03195,1.17868 q -0.119162,0.13176 -0.04968,0.2116 0.08337,0.0958 0.364851,0.0753 0.286801,-0.0251 0.712671,-0.18062 0.0047,-0.28473 0.116917,-0.532 0.112171,-0.24727 0.325063,-0.43255 0.164991,-0.14358 0.335103,-0.2168 0.268474,-0.12141 0.490717,-0.081 0.232196,0.0411 0.380416,0.21143 z"
         style="fill:#99e2d0"
         id="path194855" />
      <path
         d="m 56.868425,143.88685 q 0.574639,0.48963 0.708268,0.90938 0.143576,0.41895 -0.07149,0.67136 -0.173885,0.20408 -0.441834,0.17043 -0.258003,-0.0344 -0.531896,-0.26782 -0.252412,-0.21506 -0.286798,-0.45756 -0.03439,-0.24249 0.121196,-0.42509 0.09609,-0.11278 0.271157,-0.17681 -0.161114,-0.13728 -0.337162,-0.14824 -0.171472,-0.0163 -0.390705,0.1213 -0.132893,0.0907 -0.219835,0.19273 -0.109823,0.12889 -0.130922,0.24069 -0.01115,0.11099 0.07477,0.18421 l 0.316857,0.26998 q 0.279264,0.23795 0.132834,0.4098 -0.0183,0.0215 -0.06565,0.0553 -0.132893,0.0907 -0.285267,0.0628 -0.147003,-0.0233 -0.34571,-0.1926 l -0.161114,-0.13728 -2.014275,1.28702 q -0.07102,0.0507 -0.112206,0.099 -0.05949,0.0698 -0.06924,0.13566 -0.0052,0.0605 0.01112,0.13925 0.0056,0.0696 -0.0012,0.1102 -0.0022,0.0352 -0.04496,0.0637 -0.08634,0.0469 -0.194352,0.0105 -0.108013,-0.0364 -0.274497,-0.17827 l -1.224465,-1.04331 q -0.139632,-0.11897 -0.16747,-0.21685 -0.02326,-0.10324 0.06228,-0.16012 0.07639,-0.0462 0.208875,-0.0167 0.117164,0.0257 0.221204,0.0124 0.104039,-0.0133 0.251455,-0.11017 l 1.590332,-1.01792 q 0.09549,-0.0577 0.168706,-0.14361 0.09152,-0.1074 0.09352,-0.20766 0.01195,-0.10106 -0.01529,-0.25403 -0.01789,-0.0987 -0.02266,-0.15835 0.0052,-0.0605 0.04636,-0.10881 0.08157,-0.10661 0.193365,-0.0855 0.117165,0.0257 0.337354,0.21328 l 0.134261,0.1144 q 0.07681,-0.16629 0.191203,-0.30055 0.114398,-0.13426 0.286282,-0.23808 0.335411,-0.18695 0.828537,-0.0912 0.498496,0.10031 1.159063,0.66315 z"
         style="fill:#99e2d0"
         id="path194857" />
      <path
         d="m 57.779282,146.20208 q 0.817161,0.50299 0.998293,1.07015 0.18714,0.57087 -0.142021,1.10563 -0.110953,0.18026 -0.295864,0.37299 -0.417434,0.42243 -0.959181,0.60264 -0.538049,0.1742 -1.120444,0.0974 -0.572688,-0.0791 -1.101439,-0.40457 -0.835187,-0.51408 -1.034344,-1.09235 -0.189451,-0.58057 0.150806,-1.13336 0.114651,-0.18626 0.30326,-0.385 0.402641,-0.39839 0.943,-0.56289 0.550065,-0.1668 1.134771,-0.0803 0.594412,0.0842 1.123163,0.40965 z m -0.347187,0.52366 q -0.126179,-0.0777 -0.410924,0.0619 -0.275039,0.13725 -0.85195,0.64378 -0.57691,0.50654 -0.732245,0.7589 -0.08137,0.13219 -0.06889,0.20615 0.01617,0.0679 0.08827,0.11233 0.118782,0.0897 0.39151,-0.0573 0.278737,-0.14326 0.889856,-0.67845 0.545013,-0.46818 0.707745,-0.73255 0.07767,-0.12618 0.0652,-0.20014 -0.0065,-0.0703 -0.07857,-0.11464 z"
         style="fill:#99e2d0"
         id="path194859" />
      <path
         d="m 61.330182,147.86311 q 0.896909,0.34103 1.181068,0.86423 0.290754,0.52571 0.06758,1.11266 -0.07523,0.19785 -0.220766,0.4218 -0.330924,0.49314 -0.82933,0.77163 -0.495897,0.2719 -1.082369,0.30555 -0.577369,0.0296 -1.157723,-0.1911 -0.916694,-0.34855 -1.220638,-0.87928 -0.294841,-0.53481 -0.06414,-1.14155 0.07773,-0.20444 0.225781,-0.43499 0.320894,-0.46676 0.820879,-0.72955 0.509088,-0.26688 1.099647,-0.29143 0.599661,-0.0286 1.180015,0.19203 z m -0.242959,0.57942 q -0.138493,-0.0527 -0.392059,0.13777 -0.244463,0.18634 -0.716288,0.79197 -0.471824,0.60563 -0.577142,0.88261 -0.05517,0.14509 -0.02906,0.2154 0.02861,0.0637 0.10775,0.0938 0.133478,0.0659 0.373854,-0.12959 0.246971,-0.19293 0.747031,-0.83312 0.447677,-0.56197 0.55801,-0.85215 0.05266,-0.13849 0.02655,-0.2088 -0.01951,-0.0678 -0.09865,-0.0979 z"
         style="fill:#99e2d0"
         id="path194861" />
      <path
         d="m 65.852572,151.72031 q -0.0238,0.0531 -0.02752,0.0739 -0.0087,0.0486 0.01416,0.0814 0.02283,0.0327 0.0645,0.0402 0.08335,0.0149 0.151307,-0.0447 0.07614,-0.0653 0.09698,-0.0615 0.03473,0.006 0.0469,0.0585 0.01217,0.0523 0.001,0.11485 -0.0265,0.18878 -0.213998,0.35601 -0.18055,0.16848 -0.452903,0.24891 -0.272352,0.0804 -0.564083,0.0284 -0.347298,-0.0619 -0.580762,-0.23974 -0.233464,-0.17781 -0.292306,-0.41048 -0.230897,0.20966 -0.495065,0.28439 -0.264168,0.0747 -0.53506,0.0264 -0.319514,-0.057 -0.568861,-0.26629 -0.242401,-0.20807 -0.357076,-0.52953 -0.10649,-0.32717 -0.0396,-0.70225 0.112727,-0.63208 0.447991,-1.14564 0.343449,-0.51927 0.834798,-0.78282 0.492588,-0.27049 1.041319,-0.17263 0.298676,0.0533 0.494668,0.15989 0.202937,0.10786 0.351811,0.27775 l 0.374904,-0.73583 q 0.03199,-0.0588 0.03942,-0.10047 0.01363,-0.0764 -0.01938,-0.13246 -0.02606,-0.0548 -0.0799,-0.11459 -0.05955,-0.0679 -0.08685,-0.11582 -0.02035,-0.0466 0.01287,-0.11238 0.07017,-0.15232 0.487146,-0.19979 0.416979,-0.0475 0.847629,0.0293 0.402866,0.0719 0.563154,0.25811 0.167234,0.18749 0.120161,0.45144 -0.02725,0.15281 -0.101889,0.29 z m -0.811883,-2.15869 q -0.09379,-0.11706 -0.225766,-0.1406 -0.201432,-0.0359 -0.449186,0.22807 -0.247754,0.26399 -0.4414,0.66664 -0.193646,0.40264 -0.2474,0.74423 -0.06813,0.38203 0.181923,0.42662 0.0903,0.0161 0.165199,-0.0422 0.07614,-0.0653 0.161438,-0.22205 z"
         style="fill:#99e2d0"
         id="path194863" />
    </g>
  </g>
</svg>
