<?xml version="1.0" encoding="UTF-8" standalone="no"?>
<!-- Created with Inkscape (http://www.inkscape.org/) -->

<svg
   width="79.104141mm"
   height="79.104149mm"
   viewBox="0 0 79.104142 79.104148"
   version="1.1"
   id="svg833"
   inkscape:version="1.1.2 (0a00cf5339, 2022-02-04)"
   sodipodi:docname="spin_ext.svg"
   xmlns:inkscape="http://www.inkscape.org/namespaces/inkscape"
   xmlns:sodipodi="http://sodipodi.sourceforge.net/DTD/sodipodi-0.dtd"
   xmlns:xlink="http://www.w3.org/1999/xlink"
   xmlns="http://www.w3.org/2000/svg"
   xmlns:svg="http://www.w3.org/2000/svg">
  <sodipodi:namedview
     id="namedview835"
     pagecolor="#ffffff"
     bordercolor="#666666"
     borderopacity="1.0"
     inkscape:pageshadow="2"
     inkscape:pageopacity="0.0"
     inkscape:pagecheckerboard="0"
     inkscape:document-units="mm"
     showgrid="false"
     inkscape:snap-center="true"
     fit-margin-top="0"
     fit-margin-left="0"
     fit-margin-right="0"
     fit-margin-bottom="0"
     inkscape:zoom="1.2996003"
     inkscape:cx="53.477983"
     inkscape:cy="287.7808"
     inkscape:window-width="2560"
     inkscape:window-height="1412"
     inkscape:window-x="1920"
     inkscape:window-y="0"
     inkscape:window-maximized="1"
     inkscape:current-layer="layer2"
     inkscape:snap-intersection-paths="true" />
  <defs
     id="defs830">
    <linearGradient
       id="linearGradient55880"
       inkscape:swatch="solid">
      <stop
         style="stop-color:#000000;stop-opacity:1;"
         offset="0"
         id="stop55878" />
    </linearGradient>
    <linearGradient
       inkscape:collect="always"
       xlink:href="#linearGradient55880"
       id="linearGradient55882"
       x1="56.187157"
       y1="145.67725"
       x2="104.50992"
       y2="145.67725"
       gradientUnits="userSpaceOnUse" />
  </defs>
  <g
     inkscape:label="int"
     inkscape:groupmode="layer"
     id="layer1"
     style="display:none"
     transform="translate(-28.909783,-89.023857)">
    <g
       aria-label="ohmyfood"
       id="text6222"
       style="font-size:10.5833px;line-height:1.25;font-family:Shrikhand;-inkscape-font-specification:'Shrikhand, Normal';fill:#99e2d0;fill-opacity:1;stroke-width:0.264583"
       inkscape:transform-center-x="21.152269"
       inkscape:transform-center-y="21.354854"
       transform="rotate(-4.5750618,131.50174,176.96207)">
      <path
         d="m 96.615767,180.23907 q 0.117373,1.43454 -0.407535,2.15708 -0.524045,0.73309 -1.462822,0.8099 -0.316441,0.0259 -0.713623,-0.0266 -0.881338,-0.12964 -1.580196,-0.62463 -0.688309,-0.49586 -1.112534,-1.26816 -0.412814,-0.76263 -0.488761,-1.69086 -0.119963,-1.46618 0.402356,-2.22036 0.533731,-0.7445 1.504151,-0.8239 0.32699,-0.0268 0.73472,0.0248 0.839146,0.1331 1.51777,0.64036 0.690036,0.51695 1.104575,1.30067 0.425951,0.7934 0.501899,1.72163 z m -0.941366,0.0452 q -0.01812,-0.22151 -0.439663,-0.44187 -0.410127,-0.21067 -1.534742,-0.45845 -1.124615,-0.24778 -1.567633,-0.21154 -0.232057,0.019 -0.3104,0.0997 -0.06779,0.0799 -0.05744,0.20646 -0.003,0.22323 0.416841,0.42249 0.420676,0.20981 1.610305,0.47351 1.049915,0.24328 1.514029,0.2053 0.221509,-0.0181 0.299852,-0.0989 0.07921,-0.0702 0.06885,-0.19677 z"
         id="path11519"
         style="fill:#99e2d0;fill-opacity:1" />
      <path
         d="m 94.277669,189.25028 q -0.04632,-0.01 -0.128212,0.0118 -0.07166,0.0188 -0.104541,0.0603 -0.0302,0.0517 -0.01408,0.11311 0.03224,0.12284 0.156104,0.17786 0.136784,0.0626 0.144844,0.0933 0.01344,0.0512 -0.05016,0.1007 -0.05336,0.0468 -0.145488,0.071 -0.294173,0.0882 -0.634534,-0.0413 -0.330124,-0.13219 -0.619171,-0.48305 -0.276123,-0.34331 -0.421215,-0.89609 -0.177334,-0.67561 0.02497,-1.15544 0.212545,-0.48252 0.731922,-0.62979 0.378752,-0.0994 0.897997,-0.0388 l 1.621841,0.1761 q 0.14651,0.0162 0.228402,-0.005 0.133075,-0.0349 0.180549,-0.14587 0.0604,-0.10339 0.02815,-0.22623 -0.05105,-0.19449 -0.289047,-0.35086 -0.225072,-0.14881 -0.65654,-0.16686 l 0.02047,-0.005 -2.247292,-0.0995 q -0.130899,0.002 -0.223028,0.0257 -0.133076,0.0349 -0.201533,0.10761 -0.05822,0.07 -0.105696,0.18093 -0.05285,0.0905 -0.09597,0.13461 -0.03289,0.0414 -0.109915,0.0398 -0.14651,-0.0163 -0.248233,-0.15368 -0.101722,-0.13743 -0.185016,-0.45476 l -0.61261,-2.33393 q -0.06986,-0.26615 -0.02021,-0.41049 0.05989,-0.14702 0.213945,-0.14369 0.133586,0.009 0.271392,0.15854 0.122196,0.13206 0.261667,0.20487 0.139471,0.0728 0.403956,0.08 l 5.516443,0.2152 q 0.10019,0.007 0.161609,-0.01 0.112602,-0.0296 0.168137,-0.10978 0.05822,-0.07 0.105695,-0.18093 0.05502,-0.12386 0.103008,-0.19116 0.05067,-0.0571 0.161098,-0.0532 0.251562,-3.8e-4 0.578736,0.53743 0.327173,0.5378 0.49376,1.17247 0.15584,0.59372 0.0032,0.92922 -0.149971,0.34573 -0.53896,0.44783 -0.225204,0.0591 -0.45898,0.0439 l -1.946724,-0.0799 q 0.626853,0.2622 0.94712,0.64863 0.322954,0.39667 0.459985,0.91873 0.1639,0.62443 -0.115437,1.1026 -0.276651,0.4884 -0.880607,0.64693 -0.317333,0.0833 -0.651298,0.0615 z"
         id="path11521"
         style="fill:#99e2d0;fill-opacity:1" />
      <path
         d="m 98.941158,198.94584 q -0.04732,0.001 -0.122224,0.0405 -0.06554,0.0345 -0.08819,0.0824 -0.01772,0.0572 0.01188,0.11336 0.0592,0.11236 0.192302,0.13792 0.147395,0.03 0.162196,0.0581 0.02467,0.0468 -0.02607,0.10944 -0.04138,0.0577 -0.125644,0.10209 -0.266593,0.15244 -0.627429,0.10332 -0.351473,-0.0541 -0.712418,-0.3304 -0.346649,-0.27192 -0.613064,-0.77753 -0.325619,-0.61795 -0.237141,-1.13112 0.09784,-0.5181 0.570421,-0.77908 0.346431,-0.18254 0.865933,-0.24095 l 1.61962,-0.19548 q 0.146387,-0.0173 0.22129,-0.0568 0.12172,-0.0641 0.14286,-0.18294 0.0354,-0.11437 -0.0238,-0.22673 -0.0839,-0.15917 -0.313122,-0.2537 -0.22925,-0.0945 -0.597936,-0.0677 l -1.947325,0.36815 q -0.04732,0.001 -0.122223,0.0405 -0.06554,0.0345 -0.08819,0.0824 -0.01772,0.0572 0.01188,0.11336 0.0592,0.11236 0.192303,0.13792 0.147395,0.03 0.162196,0.0581 0.02467,0.0468 -0.02607,0.10944 -0.04138,0.0577 -0.125644,0.10209 -0.266593,0.15244 -0.627429,0.10332 -0.351473,-0.0541 -0.712419,-0.3304 -0.346648,-0.27192 -0.613064,-0.77753 -0.325618,-0.61795 -0.23714,-1.13112 0.09784,-0.5181 0.570421,-0.77907 0.34643,-0.18255 0.865933,-0.24096 l 1.61962,-0.19548 q 0.146387,-0.0173 0.221291,-0.0568 0.121719,-0.0641 0.142857,-0.18294 0.03544,-0.11437 -0.02377,-0.22673 -0.08387,-0.15917 -0.313122,-0.2537 -0.219887,-0.0995 -0.578706,-0.0539 l -2.329299,0.43784 q -0.122728,0.0168 -0.216358,0.0661 -0.112356,0.0592 -0.162591,0.14549 -0.04087,0.0813 -0.07138,0.20508 -0.02164,0.0951 -0.05366,0.1479 -0.03201,0.0528 -0.107423,0.0686 -0.141453,0.0267 -0.271635,-0.0842 -0.130182,-0.11084 -0.288058,-0.41046 l -1.124866,-2.13476 q -0.128274,-0.24344 -0.10764,-0.3859 0.02506,-0.15676 0.170946,-0.19774 0.132091,-0.0217 0.300229,0.093 0.148909,0.10097 0.301238,0.14033 0.152329,0.0394 0.411576,-0.0135 l 3.144997,-0.59251 q 0.05668,-0.006 0.140949,-0.0504 0.102993,-0.0543 0.134503,-0.13068 0.03644,-0.0671 0.07137,-0.20509 0.02557,-0.1331 0.06201,-0.20015 0.03644,-0.0671 0.144874,-0.0883 0.244951,-0.0573 0.685338,0.39252 0.44975,0.44489 0.755635,1.02539 0.241747,0.45879 0.127088,0.85416 -0.109726,0.40473 -0.55472,0.62725 0.735969,0.10267 1.163968,0.41546 0.432928,0.32216 0.694408,0.8184 0.28615,0.54305 0.14542,1.04786 -0.12643,0.50924 -0.6123,0.81311 0.84883,0.0671 1.33401,0.39764 0.49455,0.32558 0.7807,0.86863 0.30095,0.57114 0.13707,1.10012 -0.15896,0.53833 -0.71137,0.82942 -0.29026,0.15294 -0.62048,0.20732 z"
         id="path11523"
         style="fill:#99e2d0;fill-opacity:1" />
      <path
         d="m 106.19124,201.01922 q 0.29998,0.35617 0.18583,0.81207 -0.0992,0.45718 -0.59301,0.87307 -0.42901,0.36134 -1.05233,0.62343 -1.2479,0.53908 -2.68928,0.61846 -1.43456,0.0875 -2.691498,-0.32059 -1.250118,-0.39996 -1.965987,-1.2499 -0.354526,-0.42093 -0.467898,-0.85125 -0.106555,-0.42222 0.0067,-0.78055 0.106484,-0.36643 0.381703,-0.59823 0.12142,-0.10227 0.301214,-0.18452 0.288011,-0.11805 0.552605,-0.0503 0.264594,0.0677 0.46231,0.30246 0.313619,0.37236 0.2604,0.81845 -0.0545,0.46101 -0.44516,0.90075 0.460624,0.49761 1.249708,0.58019 -0.274856,-0.47418 -0.242934,-0.847 0.04683,-0.37153 0.422587,-0.81255 l 1.71048,-1.99414 q 0.13335,-0.15383 0.1491,-0.25012 0.0307,-0.095 -0.0307,-0.16787 -0.0477,-0.0567 -0.17257,-0.0899 -0.11802,-0.0251 -0.14529,-0.0575 -0.0545,-0.0648 0.0831,-0.18066 0.11332,-0.0954 0.27693,-0.16406 0.58411,-0.24291 1.23388,-0.11216 0.65786,0.12392 1.10101,0.65008 0.43634,0.51806 0.33328,1.01997 -0.0962,0.51001 -0.67436,1.12147 l -1.5763,1.74276 q -0.18191,0.19473 -0.0797,0.31615 0.12273,0.1457 0.54538,0.12181 0.43075,-0.0307 1.07324,-0.25361 0.014,-0.42692 0.18825,-0.79506 0.17423,-0.36814 0.49802,-0.64085 0.25094,-0.21135 0.50784,-0.31704 0.40561,-0.17558 0.73794,-0.10956 0.34726,0.0673 0.56543,0.32631 z"
         id="path11525"
         style="fill:#99e2d0;fill-opacity:1" />
      <path
         d="m 111.03437,202.42137 q 0.83848,0.76113 1.01906,1.39673 0.19553,0.63488 -0.13879,1.00318 -0.27031,0.29778 -0.67045,0.23472 -0.38519,-0.0638 -0.78484,-0.42657 -0.3683,-0.33432 -0.40844,-0.6995 -0.0401,-0.36518 0.20172,-0.63162 0.14938,-0.16456 0.41485,-0.25232 -0.23508,-0.2134 -0.49851,-0.23812 -0.25631,-0.0326 -0.59148,0.16346 -0.20351,0.12972 -0.33866,0.27861 -0.17072,0.18807 -0.20761,0.35469 -0.022,0.16589 0.10343,0.2797 l 0.46234,0.41969 q 0.40749,0.36989 0.17986,0.62065 -0.0284,0.0313 -0.10103,0.0798 -0.20351,0.12971 -0.43065,0.0808 -0.2193,-0.0418 -0.50924,-0.30503 l -0.23509,-0.2134 -3.0805,1.83473 q -0.10887,0.0727 -0.17289,0.14323 -0.0925,0.10187 -0.1102,0.20012 -0.0106,0.0904 0.0101,0.2093 0.005,0.10464 -0.007,0.16517 -0.005,0.0527 -0.0704,0.0933 -0.13166,0.0663 -0.29188,0.007 -0.16022,-0.0597 -0.40315,-0.28019 l -1.78667,-1.62184 q -0.20374,-0.18494 -0.24087,-0.33299 -0.03,-0.15589 0.10092,-0.23714 0.1167,-0.0656 0.31394,-0.0152 0.17445,0.044 0.33106,0.0289 0.15661,-0.0151 0.38218,-0.15335 l 2.43223,-1.45124 q 0.14589,-0.082 0.2597,-0.20736 0.14226,-0.15673 0.14998,-0.30694 0.0227,-0.15095 -0.011,-0.38158 -0.0222,-0.14877 -0.0265,-0.23847 0.0106,-0.0904 0.0746,-0.16095 0.12731,-0.156 0.29393,-0.1191 0.17445,0.044 0.49574,0.33565 l 0.1959,0.17783 q 0.12298,-0.2457 0.30081,-0.4416 0.17784,-0.19591 0.44042,-0.34347 0.51167,-0.2645 1.24648,-0.0977 0.74266,0.17387 1.70652,1.0488 z"
         id="path11527"
         style="fill:#99e2d0;fill-opacity:1" />
      <path
         d="m 112.3307,206.02608 q 1.18919,0.81086 1.42088,1.67336 0.24044,0.86847 -0.2902,1.64669 -0.17886,0.26232 -0.46942,0.53815 -0.65504,0.60373 -1.47939,0.83582 -0.81838,0.22335 -1.68564,0.0675 -0.85256,-0.15861 -1.62203,-0.68329 -1.21542,-0.82875 -1.47335,-1.70914 -0.24322,-0.88317 0.3053,-1.68763 0.18483,-0.27106 0.48135,-0.55564 0.63119,-0.56875 1.45236,-0.77739 0.83587,-0.21143 1.70591,-0.0409 0.88475,0.16776 1.65423,0.69244 z m -0.55687,0.76033 q -0.18363,-0.12521 -0.62005,0.064 -0.42171,0.1864 -1.32159,0.90499 -0.89988,0.71858 -1.1503,1.08583 -0.13117,0.19237 -0.11766,0.30406 0.0195,0.10294 0.1244,0.17449 0.1717,0.14269 0.59064,-0.0584 0.42767,-0.19514 1.38082,-0.95427 0.8494,-0.66334 1.11174,-1.04808 0.1252,-0.18362 0.11169,-0.29531 -0.005,-0.10573 -0.10969,-0.17727 z"
         id="path11529"
         style="fill:#99e2d0;fill-opacity:1" />
      <path
         d="m 117.59239,208.87006 q 1.30959,0.59718 1.68437,1.40782 0.38441,0.81503 -0.006,1.67204 -0.13173,0.28889 -0.37123,0.61005 -0.54303,0.70618 -1.316,1.07487 -0.76858,0.35906 -1.6497,0.35274 -0.86711,-0.0115 -1.7145,-0.39796 -1.33849,-0.61035 -1.74215,-1.43416 -0.38965,-0.82905 0.0143,-1.71496 0.13612,-0.29851 0.38001,-0.6293 0.52546,-0.66766 1.29928,-1.01271 0.78783,-0.35027 1.6742,-0.32994 0.90039,0.0151 1.74778,0.40151 z m -0.41969,0.84384 q -0.20222,-0.0922 -0.60018,0.16832 -0.38395,0.2553 -1.14875,1.11625 -0.76481,0.86094 -0.94923,1.26538 -0.0966,0.21184 -0.0643,0.31961 0.0367,0.0982 0.15222,0.15084 0.19344,0.11147 0.57214,-0.15785 0.38833,-0.26492 1.19874,-1.17486 0.72444,-0.79793 0.91765,-1.22162 0.0922,-0.20222 0.0599,-0.30999 -0.0226,-0.10339 -0.1382,-0.15608 z"
         id="path11531"
         style="fill:#99e2d0;fill-opacity:1" />
      <path
         d="m 123.985,215.17716 q -0.0419,0.0765 -0.05,0.10724 -0.0188,0.0717 0.0114,0.12335 0.0302,0.0517 0.0916,0.0678 0.12285,0.0322 0.23159,-0.0487 0.12166,-0.0884 0.15238,-0.0804 0.0512,0.0134 0.0631,0.0931 0.0119,0.0797 -0.0122,0.17185 -0.0622,0.27909 -0.36262,0.50668 -0.29014,0.23026 -0.707,0.3179 -0.41686,0.0876 -0.84682,-0.0251 -0.51186,-0.13422 -0.83964,-0.42805 -0.32777,-0.29383 -0.38787,-0.64877 -0.37036,0.28583 -0.7743,0.3659 -0.40393,0.0801 -0.80319,-0.0246 -0.47091,-0.12348 -0.81865,-0.46631 -0.33751,-0.34015 -0.47046,-0.83454 -0.12002,-0.50194 0.0249,-1.05475 0.24429,-0.93158 0.8071,-1.65929 0.57574,-0.73526 1.34199,-1.07045 0.76892,-0.34542 1.57766,-0.13335 0.4402,0.11543 0.72047,0.29833 0.29051,0.18559 0.49275,0.45744 l 0.64872,-1.05529 q 0.0549,-0.0841 0.071,-0.14551 0.0295,-0.11261 -0.0131,-0.20037 -0.0324,-0.0851 -0.10574,-0.18091 -0.0809,-0.10874 -0.11598,-0.18358 -0.0248,-0.0722 0.0327,-0.16648 0.12317,-0.21935 0.75232,-0.24037 0.62916,-0.021 1.26387,0.14541 0.59375,0.1557 0.8111,0.4534 0.22758,0.30038 0.12558,0.68939 -0.0591,0.22522 -0.18709,0.42141 z m -0.95529,-3.32495 q -0.12621,-0.18627 -0.32072,-0.23728 -0.29688,-0.0778 -0.69895,0.28719 -0.40207,0.36504 -0.73985,0.94387 -0.33778,0.57884 -0.45908,1.08314 -0.14765,0.56305 0.22089,0.65969 0.13309,0.0349 0.25207,-0.0433 0.12166,-0.0884 0.26798,-0.31266 z"
         id="path11533"
         style="fill:#99e2d0;fill-opacity:1" />
    </g>
    <circle
       style="display:inline;fill:none;stroke:#000000;stroke-width:0.264583"
       id="path916"
       cx="-131.59338"
       cy="176.60585"
       r="40.753773"
       transform="scale(-1,1)" />
  </g>
  <g
     inkscape:groupmode="layer"
     id="layer2"
     inkscape:label="ext"
     style="display:inline"
     transform="translate(-28.909783,-89.023857)">
    <g
       aria-label="ohmyfood"
       transform="rotate(-143.24496,68.461853,128.57591)"
       id="text5474"
       style="font-size:10.5833px;line-height:1.25;font-family:Shrikhand;-inkscape-font-specification:'Shrikhand, Normal';fill:url(#linearGradient55882);stroke:#000000;stroke-width:0.265"
       inkscape:transform-center-x="-0.99380013"
       inkscape:transform-center-y="-25.74006">
      <path
         d="m 102.54985,130.83832 q -0.0634,1.43793 -0.67479,2.08895 -0.61183,0.6616 -1.55283,0.62009 -0.31719,-0.014 -0.704662,-0.11583 -0.858126,-0.23913 -1.489403,-0.81784 -0.620703,-0.57824 -0.944743,-1.39765 -0.313933,-0.80836 -0.272893,-1.73879 0.06482,-1.46965 0.677586,-2.15239 0.622869,-0.67171 1.595587,-0.6288 0.327763,0.0145 0.725807,0.11676 0.815831,0.23727 1.425501,0.82562 0.61977,0.59939 0.93277,1.4289 0.32311,0.84055 0.28207,1.77098 z m -0.9396,-0.0732 q 0.01,-0.22203 -0.38079,-0.49351 -0.38048,-0.26043 -1.465148,-0.64727 -1.084671,-0.38684 -1.528738,-0.40642 -0.232606,-0.0103 -0.320455,0.06 -0.07728,0.0707 -0.08287,0.19762 -0.03094,0.2211 0.360575,0.47143 0.391049,0.2609 1.538225,0.67168 1.011121,0.373 1.476341,0.39352 0.22203,0.01 0.30988,-0.0605 0.0874,-0.0597 0.093,-0.18659 z"
         style="fill:#9356dc;stroke:none"
         id="path194734" />
      <path
         d="m 96.398319,139.90153 q -0.03436,-0.0326 -0.115382,-0.0571 -0.07089,-0.0215 -0.12062,-0.003 -0.0528,0.0282 -0.07124,0.089 -0.03688,0.12153 0.03981,0.23327 0.08374,0.12495 0.07453,0.15533 -0.01537,0.0506 -0.09548,0.0595 -0.06998,0.0119 -0.161129,-0.0157 -0.296767,-0.079 -0.518873,-0.36758 -0.21198,-0.28551 -0.274427,-0.73579 -0.05539,-0.43708 0.110546,-0.98396 0.202814,-0.6684 0.626479,-0.97118 0.433793,-0.29971 0.953361,-0.15312 0.374712,0.1137 0.785257,0.43735 l 1.289327,0.99951 q 0.11629,0.0906 0.197309,0.11517 0.131656,0.0399 0.230204,-0.0297 0.105602,-0.0564 0.142477,-0.17796 0.05839,-0.19242 -0.06245,-0.45028 -0.113779,-0.24466 -0.47187,-0.48603 l 0.02025,0.006 -1.862256,-1.26183 q -0.11231,-0.0673 -0.203456,-0.0949 -0.131655,-0.04 -0.228039,-0.0139 -0.08626,0.0291 -0.184804,0.0988 -0.0924,0.0494 -0.152258,0.0644 -0.04973,0.0181 -0.114474,-0.0237 -0.11629,-0.0906 -0.13096,-0.26094 -0.01467,-0.17034 0.08059,-0.48429 l 0.700632,-2.30904 q 0.0799,-0.26331 0.19779,-0.36025 0.128022,-0.0939 0.257513,-0.0104 0.109236,0.0774 0.148142,0.27721 0.03493,0.17649 0.115596,0.31157 0.08067,0.13508 0.302218,0.27972 l 4.586468,3.07276 q 0.0819,0.058 0.14269,0.0765 0.1114,0.0338 0.20073,-0.005 0.0862,-0.0291 0.18479,-0.0988 0.11175,-0.0767 0.18789,-0.10889 0.0731,-0.0221 0.16511,0.039 0.21449,0.13144 0.2115,0.76094 -0.003,0.6295 -0.19353,1.2574 -0.17823,0.58738 -0.48399,0.79322 -0.30885,0.21596 -0.69368,0.0992 -0.22281,-0.0676 -0.41398,-0.20302 l -1.61647,-1.08772 q 0.39665,0.55169 0.46706,1.04862 0.0673,0.50707 -0.0894,1.02356 -0.18745,0.61777 -0.67586,0.87878 -0.491484,0.27114 -1.088998,0.0898 -0.313948,-0.0953 -0.587039,-0.28872 z"
         style="fill:#9356dc;stroke:none"
         id="path194736" />
      <path
         d="m 90.266592,149.69985 q -0.02221,-0.0418 -0.09118,-0.0909 -0.06035,-0.043 -0.113248,-0.0417 -0.05904,0.01 -0.09587,0.0617 -0.07366,0.10345 -0.03656,0.2338 0.03959,0.14512 0.02117,0.17098 -0.03069,0.0431 -0.109456,0.026 -0.07014,-0.011 -0.147733,-0.0662 -0.256152,-0.1694 -0.374772,-0.5137 -0.11,-0.33817 -0.02578,-0.78489 0.08671,-0.43196 0.418189,-0.8975 0.405146,-0.56899 0.903185,-0.72106 0.50666,-0.14593 0.952477,0.15852 0.318982,0.22712 0.60506,0.66468 l 0.903824,1.35812 q 0.08138,0.1229 0.150351,0.17201 0.112075,0.0798 0.22767,0.0452 0.118078,-0.0199 0.191741,-0.12331 0.104355,-0.14656 0.08553,-0.39382 -0.01882,-0.24726 -0.20876,-0.56439 l -1.205563,-1.57297 q -0.02221,-0.0418 -0.09118,-0.0909 -0.06035,-0.043 -0.113248,-0.0417 -0.05904,0.01 -0.09587,0.0617 -0.07366,0.10346 -0.03656,0.23381 0.03959,0.14512 0.02117,0.17098 -0.03069,0.0431 -0.109457,0.026 -0.07014,-0.011 -0.147732,-0.0662 -0.256152,-0.16939 -0.374773,-0.5137 -0.109999,-0.33816 -0.02578,-0.78488 0.08671,-0.43196 0.418189,-0.8975 0.405146,-0.569 0.903184,-0.72106 0.50666,-0.14593 0.952477,0.15851 0.318983,0.22713 0.605061,0.66469 l 0.903823,1.35811 q 0.08138,0.12291 0.150352,0.17202 0.112074,0.0798 0.22767,0.0452 0.118077,-0.0199 0.19174,-0.12331 0.104356,-0.14656 0.08553,-0.39382 -0.0102,-0.24112 -0.212415,-0.54101 l -1.43978,-1.88265 q -0.07028,-0.10201 -0.156489,-0.1634 -0.103454,-0.0737 -0.203116,-0.0797 -0.09104,1.3e-4 -0.215257,0.0286 -0.0947,0.0235 -0.156219,0.0187 -0.06152,-0.005 -0.109592,-0.065 -0.08752,-0.11429 -0.04717,-0.28043 0.04035,-0.16615 0.236786,-0.44203 l 1.399595,-1.96562 q 0.159603,-0.22415 0.296097,-0.26987 0.151253,-0.0482 0.253533,0.0636 0.0789,0.10815 0.05213,0.30996 -0.02311,0.17842 0.01034,0.33216 0.03345,0.15373 0.197385,0.36141 l 1.945178,2.54133 q 0.03083,0.0479 0.108419,0.10318 0.09483,0.0675 0.177252,0.0613 0.07628,0.002 0.215257,-0.0286 0.130355,-0.0371 0.206636,-0.0348 0.07628,0.002 0.144077,0.0896 0.161455,0.19292 -0.04188,0.78868 -0.194718,0.6019 -0.57531,1.13641 -0.30079,0.42243 -0.705441,0.49808 -0.41079,0.0843 -0.809845,-0.21286 0.239724,0.70337 0.153153,1.22637 -0.09271,0.53162 -0.418053,0.98854 -0.356038,0.50003 -0.870145,0.60168 -0.511625,0.11641 -1.001721,-0.18059 0.322279,0.78813 0.245639,1.37017 -0.06802,0.58818 -0.424057,1.0882 -0.374453,0.52589 -0.920563,0.61775 -0.552248,0.10047 -1.060895,-0.2617 -0.267256,-0.1903 -0.464504,-0.46067 z"
         style="fill:#9356dc;stroke:none"
         id="path194738" />
      <path
         d="m 87.145628,157.26451 q -0.371825,0.28034 -0.820909,0.14177 -0.451162,-0.12374 -0.839814,-0.63923 -0.337682,-0.44788 -0.565773,-1.08442 -0.471004,-1.27516 -0.472534,-2.71872 -0.01,-1.43719 0.465272,-2.67029 0.466802,-1.22673 1.354112,-1.89572 0.43943,-0.33131 0.875236,-0.42131 0.427355,-0.0836 0.779056,0.0488 0.360152,0.12609 0.576778,0.41341 0.09557,0.12676 0.168001,0.31072 0.102343,0.29396 0.02045,0.55452 -0.08189,0.26056 -0.326958,0.44533 -0.388727,0.29308 -0.831305,0.21588 -0.4574,-0.0793 -0.875429,-0.49309 -0.521723,0.43312 -0.646744,1.2166 0.488322,-0.24888 0.85887,-0.1969 0.368468,0.0668 0.788576,0.46579 l 1.899003,1.81554 q 0.146407,0.14144 0.24171,0.16237 0.09322,0.0358 0.169279,-0.0216 0.05915,-0.0446 0.09906,-0.16746 0.03146,-0.1165 0.06526,-0.14198 0.06761,-0.051 0.175918,0.0927 0.0892,0.11831 0.148887,0.28538 0.211056,0.59637 0.04546,1.23813 -0.159225,0.65022 -0.708512,1.06436 -0.540836,0.40777 -1.036465,0.27778 -0.504079,-0.12361 -1.08347,-0.73386 l -1.655213,-1.66798 q -0.184636,-0.19215 -0.311394,-0.0966 -0.152111,0.11468 -0.151041,0.53801 0.0074,0.43178 0.195358,1.08536 0.425543,0.037 0.78375,0.23085 0.358206,0.19383 0.61306,0.53185 0.197511,0.26197 0.28919,0.52421 0.153447,0.41447 0.06961,0.74277 -0.08592,0.34312 -0.356335,0.547 z"
         style="fill:#9356dc;stroke:none"
         id="path194740" />
      <path
         d="m 82.491396,162.2111 q -1.017952,0.49612 -1.67518,0.42791 -0.662104,-0.0541 -0.880025,-0.50119 -0.176191,-0.36152 0.03088,-0.70968 0.202188,-0.334 0.68738,-0.57047 0.447138,-0.21792 0.801133,-0.11966 0.353995,0.0983 0.51164,0.42172 0.09737,0.19979 0.08033,0.47887 0.285408,-0.13909 0.40613,-0.37453 0.125359,-0.22592 0.06773,-0.6099 -0.04492,-0.23712 -0.13302,-0.41788 -0.111278,-0.22832 -0.252299,-0.32442 -0.145899,-0.082 -0.298116,-0.008 l -0.561301,0.27356 q -0.494705,0.2411 -0.643077,-0.0633 -0.01855,-0.0381 -0.03661,-0.12344 -0.04492,-0.23712 0.08483,-0.42986 0.120242,-0.18811 0.472244,-0.35966 l 0.285407,-0.1391 -0.560418,-3.54142 q -0.0271,-0.12808 -0.06883,-0.2137 -0.06028,-0.12367 -0.144936,-0.1766 -0.08002,-0.0434 -0.198103,-0.0683 -0.09905,-0.0341 -0.150775,-0.0678 -0.04709,-0.0242 -0.06052,-0.10002 -0.01271,-0.14686 0.102176,-0.27349 0.114884,-0.12663 0.409804,-0.27036 l 2.169095,-1.05715 q 0.247353,-0.12055 0.398609,-0.10008 0.155892,0.03 0.182751,0.18172 0.01758,0.13271 -0.102417,0.29715 -0.10561,0.14566 -0.149743,0.29667 -0.04413,0.15102 5.5e-4,0.4118 l 0.444913,2.79713 q 0.02198,0.16589 0.09617,0.31811 0.09273,0.19027 0.229357,0.25319 0.131748,0.0771 0.358392,0.13143 0.146378,0.0346 0.23128,0.0639 0.08002,0.0434 0.121753,0.12903 0.09761,0.17612 0.0015,0.31714 -0.105611,0.14566 -0.495667,0.33576 l -0.237839,0.11592 q 0.18251,0.20538 0.298425,0.44322 0.115915,0.23784 0.155482,0.53643 0.05571,0.57329 -0.371851,1.19374 -0.437074,0.62508 -1.607244,1.19538 z"
         style="fill:#9356dc;stroke:none"
         id="path194742" />
      <path
         d="m 76.454758,161.78963 q -1.393281,0.36116 -2.194999,-0.0323 -0.811963,-0.39084 -1.048309,-1.30262 -0.07967,-0.30734 -0.09597,-0.70764 -0.02311,-0.89052 0.344972,-1.66379 0.370735,-0.76301 1.059044,-1.31316 0.680719,-0.53724 1.582254,-0.77093 1.424015,-0.36913 2.256468,0.0164 0.824863,0.39843 1.069176,1.34095 0.08232,0.31758 0.101277,0.72813 0.01248,0.84954 -0.37115,1.60497 -0.391225,0.76833 -1.092434,1.31088 -0.708798,0.55546 -1.610333,0.78915 z m -0.205612,-0.91975 q 0.215139,-0.0558 0.3601,-0.5088 0.137373,-0.44013 0.189024,-1.59056 0.05165,-1.15043 -0.05988,-1.58071 -0.05842,-0.22538 -0.15138,-0.28875 -0.0903,-0.0531 -0.213239,-0.0213 -0.22045,0.0353 -0.344922,0.48299 -0.134717,0.45038 -0.190924,1.66759 -0.06,1.07606 0.05685,1.52683 0.05577,0.21514 0.148725,0.27851 0.08271,0.066 0.205649,0.0341 z"
         style="fill:#9356dc;stroke:none"
         id="path194744" />
      <path
         d="m 68.231703,162.73403 q -1.439224,0.0174 -2.123533,-0.55649 -0.694891,-0.57373 -0.706263,-1.51557 -0.0038,-0.31748 0.0761,-0.71006 0.190591,-0.87019 0.732961,-1.53295 0.542497,-0.65218 1.342425,-1.0217 0.789474,-0.3588 1.720736,-0.37005 1.470972,-0.0178 2.187028,0.55572 0.705602,0.58419 0.717357,1.55778 0.004,0.32806 -0.07584,0.73122 -0.191102,0.82787 -0.74431,1.46959 -0.563663,0.65243 -1.374301,1.01149 -0.821093,0.36978 -1.752356,0.38102 z m 0.02038,-0.94223 q 0.222233,-0.003 0.471359,-0.40788 0.238671,-0.3945 0.564024,-1.49917 0.325353,-1.10467 0.319986,-1.54914 -0.0028,-0.23281 -0.07791,-0.31658 -0.07497,-0.0732 -0.201962,-0.0716 -0.222489,-0.0185 -0.450449,0.38647 -0.238543,0.40507 -0.584294,1.57349 -0.315665,1.03047 -0.310043,1.4961 0.0027,0.22224 0.07778,0.306 0.06452,0.0839 0.191507,0.0824 z"
         style="fill:#9356dc;stroke:none"
         id="path194746" />
      <path
         d="m 59.175478,157.29701 q 0.04001,-0.0776 0.04728,-0.10847 0.01698,-0.0721 -0.01453,-0.12302 -0.03151,-0.0509 -0.09332,-0.0655 -0.12362,-0.0291 -0.230287,0.0545 -0.119393,0.0915 -0.150298,0.0842 -0.05151,-0.0121 -0.06544,-0.0915 -0.01393,-0.0794 0.0079,-0.1721 0.05518,-0.28057 0.349728,-0.51566 0.284243,-0.23751 0.698759,-0.33563 0.414515,-0.0981 0.847184,0.004 0.515083,0.12127 0.850163,0.40674 0.33508,0.28547 0.404118,0.63877 0.363031,-0.29507 0.764819,-0.38531 0.401789,-0.0902 0.803553,0.004 0.473876,0.11157 0.83016,0.44552 0.345982,0.33152 0.491358,0.8224 0.132649,0.49875 0.0017,1.05504 -0.220704,0.93745 -0.764986,1.67913 -0.557009,0.74954 -1.314552,1.10395 -0.759969,0.36472 -1.5738,0.17312 -0.442971,-0.10429 -0.727767,-0.28007 -0.295098,-0.1782 -0.504133,-0.44487 l -0.621892,1.07133 q -0.05273,0.0854 -0.06728,0.14725 -0.02668,0.11331 0.01815,0.19998 0.03453,0.0842 0.110269,0.17817 0.08361,0.10667 0.12057,0.18061 0.02666,0.0715 -0.0285,0.16725 -0.117593,0.22239 -0.746018,0.25927 -0.628424,0.0369 -1.267127,-0.11349 -0.597495,-0.14066 -0.822283,-0.43278 -0.235089,-0.29455 -0.142927,-0.68601 0.05336,-0.22664 0.176401,-0.426 z m 1.03886,3.29979 q 0.130872,0.18303 0.326603,0.22911 0.298748,0.0703 0.691483,-0.30473 0.392736,-0.37506 0.715808,-0.96223 0.323073,-0.58717 0.431612,-1.09437 0.133393,-0.5666 -0.237466,-0.65391 -0.133922,-0.0315 -0.25089,0.0497 -0.119393,0.0915 -0.260014,0.31933 z"
         style="fill:#9356dc;stroke:none"
         id="path194748" />
    </g>
  </g>
</svg>
